<svg width="141" height="24" viewBox="0 0 141 24" fill="none" xmlns="http://www.w3.org/2000/svg">
<path fill-rule="evenodd" clip-rule="evenodd" d="M3.5147 3.51472C0.373956 6.65547 -0.661872 11.1041 0.407281 15.1075L3.42901 12.0857C3.40691 9.86362 4.24358 7.63456 5.93908 5.93909C8.87133 3.00686 13.3994 2.64322 16.7275 4.84814L12.7576 8.81802H17.6063L21.6115 4.81283C21.2723 4.3603 20.8968 3.92628 20.4853 3.51472C15.799 -1.17157 8.20098 -1.17157 3.5147 3.51472ZM7.27252 19.1519C10.6006 21.3568 15.1287 20.9931 18.0609 18.0609C19.7564 16.3654 20.5931 14.1364 20.571 11.9143L23.5927 8.89254C24.6619 12.8959 23.626 17.3445 20.4853 20.4853C15.799 25.1716 8.20104 25.1716 3.5147 20.4853C3.10314 20.0737 2.72778 19.6397 2.38848 19.1872L6.39367 15.182H11.2424L7.27252 19.1519ZM81.8193 6.15C78.2022 6.15 76.1451 9.01285 76.1451 11.9957C76.1451 14.9785 78.2022 17.8585 81.8193 17.8585C85.4365 17.8585 87.4936 14.9785 87.4936 11.9957C87.4936 9.01285 85.4365 6.15 81.8193 6.15ZM81.8193 8.65285C83.7565 8.65285 84.8022 10.3157 84.8022 11.9957C84.8022 13.6928 83.7393 15.3214 81.8193 15.3214C79.8993 15.3214 78.8536 13.6928 78.8536 11.9957C78.8536 10.3157 79.8822 8.65285 81.8193 8.65285ZM116.993 11.9957C116.993 9.01285 119.05 6.15 122.667 6.15C125.187 6.15 127.141 7.62428 127.947 9.71571L128.067 10.0071L125.17 10.0586L125.084 9.93857C124.553 9.15 123.679 8.65285 122.667 8.65285C120.73 8.65285 119.701 10.3157 119.701 11.9957C119.701 13.6928 120.747 15.3214 122.667 15.3214C124.021 15.3214 125.016 14.4643 125.444 13.3157H122.41V10.8986H128.239L128.273 11.1043C128.324 11.3957 128.341 11.7043 128.341 11.9957C128.341 14.9957 126.301 17.8585 122.667 17.8585C119.05 17.8585 116.993 14.9785 116.993 11.9957ZM130.469 14.1557V13.9328H133.058V14.1557C133.058 14.6357 133.418 14.9614 133.984 15.1671C134.532 15.3728 135.235 15.4414 135.715 15.4414C136.281 15.4414 136.967 15.39 137.515 15.1843C138.047 14.9785 138.389 14.6528 138.389 14.1043C138.389 13.6414 138.029 13.3843 137.429 13.2471C137.121 13.1614 136.795 13.1271 136.487 13.11C136.161 13.0928 135.869 13.0928 135.629 13.0928C133.178 13.0928 130.675 12.6471 130.675 9.76714C130.675 6.95571 133.178 6.15 135.715 6.15C138.115 6.15 140.772 7.21285 140.772 9.83571V10.0757H138.184V9.83571C138.184 9.37285 137.858 9.04714 137.361 8.84143C136.847 8.63571 136.212 8.55 135.715 8.55C135.201 8.55 134.567 8.60143 134.069 8.79C133.589 8.96142 133.281 9.27 133.281 9.76714C133.281 10.1957 133.607 10.4357 134.172 10.5557C134.447 10.6243 134.755 10.6586 135.047 10.6757C135.338 10.6929 135.629 10.6929 135.835 10.6929C138.355 10.6929 140.995 11.1385 140.995 14.1043C140.995 17.0185 138.355 17.8585 135.715 17.8585C133.349 17.8585 130.469 16.8471 130.469 14.1557ZM103.83 6.37284V12.2185C103.83 14.9785 105.647 17.8585 109.093 17.8585C112.539 17.8585 114.356 14.9614 114.356 12.2185V6.37284H111.75V12.2185C111.75 13.7442 110.842 15.3214 109.093 15.3214C107.327 15.3214 106.436 13.7614 106.436 12.2185V6.37284H103.83ZM90.1531 17.6357V6.37284H97.3017C99.5474 6.37284 100.678 8.01855 100.678 9.83569C100.678 10.5557 100.404 11.2757 99.8731 11.8242C100.696 12.39 101.09 13.2471 101.09 14.1557C101.09 15.99 99.9584 17.6357 97.696 17.6357H90.1531ZM92.7588 10.7957H97.3017C97.7988 10.7957 98.0731 10.4357 98.0731 9.93855V9.62998C98.0731 9.11569 97.7988 8.77284 97.3017 8.77284H92.7588V10.7957ZM92.7588 15.2357H97.696C98.1931 15.2357 98.5017 14.8757 98.5017 14.3785V14.0528C98.5017 13.5385 98.1931 13.1957 97.696 13.1957H92.7588V15.2357ZM62.8651 17.6357V6.37284H70.6309C72.8937 6.37284 74.008 8.01855 74.008 9.83569C74.008 11.3614 73.1509 12.7671 71.4537 13.11C71.4672 13.1325 71.4819 13.1538 71.4968 13.1746L71.5183 13.2041C71.5532 13.2515 71.587 13.2975 71.608 13.35L74.1794 17.6357H71.248L68.608 13.1957H65.4709V17.6357H62.8651ZM65.4709 10.7957H70.6309C71.128 10.7957 71.4023 10.4357 71.4023 9.93855V9.62998C71.4023 9.11569 71.128 8.77284 70.6309 8.77284H65.4709V10.7957ZM60.0028 6.37284H49.2714V17.6357H60.0028V15.2357H51.8771V13.1957H57.9114V10.7957H51.8771V8.77284H60.0028V6.37284ZM35.67 15.5957L42.3214 8.77284H35.8757V6.37284H46.1957V8.41284L39.5271 15.2357H46.4014V17.6357H35.67V15.5957Z" fill="white"/>
</svg>
